HIERARCHY
ROOT root
{
	OFFSET	0	13.1	24.9
	CHANNELS 6  Xposition Yposition Zposition Xrotation Yrotation Zrotation
	JOINT spine_1
	{
		OFFSET	0	9.99999	0
		CHANNELS 3  Xrotation Yrotation Zrotation
		JOINT spine_2
		{
			OFFSET	0	112	-10
			CHANNELS 3  Xrotation Yrotation Zrotation
			JOINT spine_3
			{
				OFFSET	0	206.5	19.3
				CHANNELS 3  Xrotation Yrotation Zrotation
				JOINT spine_4
				{
					OFFSET	0	110.4	14.6
					CHANNELS 3  Xrotation Yrotation Zrotation
					JOINT neck_1
					{
						OFFSET	0	71.8	-50.3
						CHANNELS 3  Xrotation Yrotation Zrotation
						JOINT neck_2
						{
							OFFSET	0	86.2	-25.8
							CHANNELS 3  Xrotation Yrotation Zrotation
							JOINT head_ee
							{
								OFFSET	0	179.8	-8.7
								CHANNELS 3  Xrotation Yrotation Zrotation
								End Site
								{
									OFFSET	1	0	0
								}
							}
						}
					}
					JOINT left_clavicle
					{
						OFFSET	-43.2	22.4	-70.8
						CHANNELS 3  Xrotation Yrotation Zrotation
						JOINT left_shoulder
						{
							OFFSET	-93.9	-5.79999	48.7
							CHANNELS 3  Xrotation Yrotation Zrotation
							JOINT left_elbow
							{
								OFFSET	-291.4	-30.8	15.2
								CHANNELS 3  Xrotation Yrotation Zrotation
								JOINT left_lowarm_twist
								{
									OFFSET	-110.7	-3.89999	13.6
									CHANNELS 3  Xrotation Yrotation Zrotation
									JOINT left_hand
									{
										OFFSET	-110.7	-3.89999	13.6
										CHANNELS 3  Xrotation Yrotation Zrotation
										JOINT left_ee
										{
											OFFSET	-80.8	-5.10001	12.1
											CHANNELS 3  Xrotation Yrotation Zrotation
											End Site
											{
												OFFSET	1	0	0
											}
										}
									}
								}
							}
						}
					}
					JOINT right_clavicle
					{
						OFFSET	43.2	22.4	-70.8
						CHANNELS 3  Xrotation Yrotation Zrotation
						JOINT right_shoulder
						{
							OFFSET	93.9	-5.79999	48.7
							CHANNELS 3  Xrotation Yrotation Zrotation
							JOINT right_elbow
							{
								OFFSET	291.4	-30.8	15.2
								CHANNELS 3  Xrotation Yrotation Zrotation
								JOINT right_lowarm_twist
								{
									OFFSET	110.7	-3.89999	13.6
									CHANNELS 3  Xrotation Yrotation Zrotation
									JOINT right_hand
									{
										OFFSET	110.7	-3.89999	13.6
										CHANNELS 3  Xrotation Yrotation Zrotation
										JOINT right_ee
										{
											OFFSET	80.8	-5.10001	12.1
											CHANNELS 3  Xrotation Yrotation Zrotation
											End Site
											{
												OFFSET	1	0	0
											}
										}
									}
								}
							}
						}
					}
				}
			}
		}
	}
	JOINT left_hip
	{
		OFFSET	-82.8	-127.5	0.300001
		CHANNELS 3  Xrotation Yrotation Zrotation
		JOINT left_knee
		{
			OFFSET	-28.2	-396.7	2.2
			CHANNELS 3  Xrotation Yrotation Zrotation
			JOINT left_ankle
			{
				OFFSET	-11.7	-411.3	35.4
				CHANNELS 3  Xrotation Yrotation Zrotation
				JOINT left_toes
				{
					OFFSET	0	-60	-88.6
					CHANNELS 3  Xrotation Yrotation Zrotation
					JOINT left_foot_ee
					{
						OFFSET	-22.5	-16.5	-42.2
						CHANNELS 3  Xrotation Yrotation Zrotation
						End Site
						{
							OFFSET	1	0	0
						}
					}
				}
			}
		}
	}
	JOINT right_hip
	{
		OFFSET	82.8	-127.5	0.300001
		CHANNELS 3  Xrotation Yrotation Zrotation
		JOINT right_knee
		{
			OFFSET	28.2	-396.7	2.2
			CHANNELS 3  Xrotation Yrotation Zrotation
			JOINT right_ankle
			{
				OFFSET	11.7	-411.3	35.4
				CHANNELS 3  Xrotation Yrotation Zrotation
				JOINT right_toes
				{
					OFFSET	0	-60	-88.6
					CHANNELS 3  Xrotation Yrotation Zrotation
					JOINT right_foot_ee
					{
						OFFSET	22.5	-16.5	-42.2
						CHANNELS 3  Xrotation Yrotation Zrotation
						End Site
						{
							OFFSET	1	0	0
						}
					}
				}
			}
		}
	}
}
MOTION
Frames: 9
Frame Time: 0.02
2800.94 716.97 -1473.77 -2.29956961115 59.4610305371 -6.120352458 -1.08519 0.333644 3.69675 -1.0776 0.0978995 3.71046 -1.06559 -0.752807 3.63471 -1.08398 -0.169738 3.70787 -1.57645 17.2576 -2.66963 -0.803207 33.2621 -0.827924 -0.0 0.0 -0.0 0.0847614 5.68035 0.829335 16.4753 -15.6005 53.7942 2.68882 -53.0924 1.34349 -62.322 -5.57286 5.16758 -0.982795 9.9787 -2.16372 -0.0 0.0 -0.0 12.5136 16.024 -25.3391 -27.3044 27.6816 -58.7763 0.479233 13.3549 -0.0561059 -9.58429 0.434568 -1.14426 -3.05488 2.95716 22.3505 0.0 0.0 0.0 -16.1931 -2.23097 21.8946 -3.63136 0.132388 0.541484 41.2015 24.3115 -5.25919 -21.7382 0.0 0.0 -0.0 0.0 -0.0 36.0603 19.4306 -7.67035 -0.210388 -0.00860582 -0.0311392 -12.5187 -12.3026 -1.87571 -34.8482 0.0 0.0 0.0 0.0 0.0 
2715.6598821 715.265 -1495.32096032 0.204774142418 64.555563728 -7.63338134033 -1.32872 0.72099 3.22303 -1.32309 0.514552 3.26232 -1.28824 -0.256686 3.29263 -1.30327 0.266255 3.29187 -0.976211 13.79 -3.51135 -0.367381 27.5765 -2.23039 -0.0 0.0 -0.0 0.0962957 11.3722 1.50763 8.28928 -17.4875 57.4965 2.15531 -46.8688 0.934314 -61.6797 -5.49236 5.15039 -0.188661 -0.106313 -1.30507 -0.0 0.0 -0.0 12.9313 17.4959 -26.2395 -21.2902 28.6832 -61.109 0.222531 6.29077 -0.0122287 -6.57917 0.277739 -0.79341 -2.6546 3.70055 19.8234 0.0 0.0 0.0 -16.5281 -4.61319 20.5872 -13.8143 0.318034 2.09101 39.184 24.5262 -5.07393 -21.0318 0.0 0.0 -0.0 0.0 -0.0 34.3912 23.1388 -9.20688 -13.6654 -0.317311 -2.06817 -4.57449 -7.29121 -0.676185 -32.8778 0.0 0.0 0.0 0.0 0.0 
2716.2101275 715.265 -1497.39183536 0.194856174057 63.1598126859 -7.62233399082 -1.32872 0.72099 3.22303 -1.32309 0.514552 3.26232 -1.28824 -0.256686 3.29263 -1.30327 0.266255 3.29187 -0.976211 13.79 -3.51135 -0.367381 27.5765 -2.23039 -0.0 0.0 -0.0 0.0962957 11.3722 1.50763 8.28928 -17.4875 57.4965 2.15531 -46.8688 0.934314 -61.6797 -5.49236 5.15039 -0.188661 -0.106313 -1.30507 -0.0 0.0 -0.0 12.9313 17.4959 -26.2395 -21.2902 28.6832 -61.109 0.222531 6.29077 -0.0122287 -6.57917 0.277739 -0.79341 -2.6546 3.70055 19.8234 0.0 0.0 0.0 -16.5281 -4.61319 20.5872 -13.8143 0.318034 2.09101 39.184 24.5262 -5.07393 -21.0318 0.0 0.0 -0.0 0.0 -0.0 34.3912 23.1388 -9.20688 -13.6654 -0.317311 -2.06817 -4.57449 -7.29121 -0.676185 -32.8778 0.0 0.0 0.0 0.0 0.0 
2716.57019792 715.265 -1498.64727672 0.189321907873 62.3090746107 -7.61610814028 -1.32872 0.72099 3.22303 -1.32309 0.514552 3.26232 -1.28824 -0.256686 3.29263 -1.30327 0.266255 3.29187 -0.976211 13.79 -3.51135 -0.367381 27.5765 -2.23039 -0.0 0.0 -0.0 0.0962957 11.3722 1.50763 8.28928 -17.4875 57.4965 2.15531 -46.8688 0.934314 -61.6797 -5.49236 5.15039 -0.188661 -0.106313 -1.30507 -0.0 0.0 -0.0 12.9313 17.4959 -26.2395 -21.2902 28.6832 -61.109 0.222531 6.29077 -0.0122287 -6.57917 0.277739 -0.79341 -2.6546 3.70055 19.8234 0.0 0.0 0.0 -16.5281 -4.61319 20.5872 -13.8143 0.318034 2.09101 39.184 24.5262 -5.07393 -21.0318 0.0 0.0 -0.0 0.0 -0.0 34.3912 23.1388 -9.20688 -13.6654 -0.317311 -2.06817 -4.57449 -7.29121 -0.676185 -32.8778 0.0 0.0 0.0 0.0 0.0 
2692.00419579 720.257 -1503.42284238 0.867978863493 63.1423788068 -8.13610019678 -1.30898 0.738611 3.2656 -1.3032 0.529432 3.30592 -1.26697 -0.251078 3.33858 -1.28241 0.279039 3.33636 -1.08271 13.22 -3.77743 -0.506183 26.7737 -2.54827 -0.0 0.0 -0.0 0.236765 13.2167 1.9489 6.4632 -17.2659 58.7816 1.90582 -43.348 0.757475 -62.1321 -5.54904 5.16259 -0.227521 0.531119 -1.29354 -0.0 0.0 -0.0 12.9635 19.4161 -26.201 -18.7104 27.3094 -62.6217 0.191496 5.41907 -0.0090627 -5.54704 0.228158 -0.671098 -2.66074 0.540575 18.3398 0.0 0.0 0.0 -16.2013 -4.43022 19.872 -16.7343 0.320224 2.53897 38.3327 24.6619 -4.9944 -20.1705 0.0 0.0 -0.0 0.0 -0.0 32.7758 24.4423 -9.32908 -15.7316 -0.322046 -2.38513 1.22803 -9.64901 0.179219 -32.4123 0.0 0.0 0.0 0.0 0.0 
2662.84903058 726.113 -1508.9138923 2.58347937127 63.5396457522 -10.0196342233 -1.26994 0.809279 3.31609 -1.26402 0.59675 3.3608 -1.22311 -0.195595 3.40771 -1.23915 0.344726 3.39588 1.49558 13.2502 -4.23178 2.31611 26.8951 -3.65378 -0.0 0.0 -0.0 0.229816 14.9061 2.12264 3.52386 -17.7307 59.4918 1.65242 -39.2992 0.590046 -61.6508 -5.48874 5.1496 -0.435952 -0.483149 -3.11995 -0.0 0.0 -0.0 13.0065 21.67 -26.1305 -17.9205 27.223 -63.9286 0.195918 5.54343 -0.00948499 -5.54098 0.227873 -0.670377 -2.45006 -0.304162 16.4514 0.0 0.0 0.0 -15.9045 -2.95097 19.6494 -20.3147 0.291764 3.0875 37.7511 25.652 -4.96705 -21.175 0.0 0.0 -0.0 0.0 -0.0 27.5576 24.4423 -8.43137 -12.225 -0.30725 -1.8474 5.91044 -11.8553 0.853092 -32.2927 0.0 0.0 0.0 0.0 0.0 
2663.16690275 726.113 -1510.1400794 2.53825913976 63.0308101655 -9.96901065107 -1.26994 0.809279 3.31609 -1.26402 0.59675 3.3608 -1.22311 -0.195595 3.40771 -1.23915 0.344726 3.39588 1.49558 13.2502 -4.23178 2.31611 26.8951 -3.65378 -0.0 0.0 -0.0 0.229816 14.9061 2.12264 3.52386 -17.7307 59.4918 1.65242 -39.2992 0.590046 -61.6508 -5.48874 5.1496 -0.435952 -0.483149 -3.11995 -0.0 0.0 -0.0 13.0065 21.67 -26.1305 -17.9205 27.223 -63.9286 0.195918 5.54343 -0.00948499 -5.54098 0.227873 -0.670377 -2.45006 -0.304162 16.4514 0.0 0.0 0.0 -15.9045 -2.95097 19.6494 -20.3147 0.291764 3.0875 37.7511 25.652 -4.96705 -21.175 0.0 0.0 -0.0 0.0 -0.0 27.5576 24.4423 -8.43137 -12.225 -0.30725 -1.8474 5.91044 -11.8553 0.853092 -32.2927 0.0 0.0 0.0 0.0 0.0 
2663.53323478 726.113 -1511.50048994 2.49001365731 62.4648521237 -9.91474191805 -1.26994 0.809279 3.31609 -1.26402 0.59675 3.3608 -1.22311 -0.195595 3.40771 -1.23915 0.344726 3.39588 1.49558 13.2502 -4.23178 2.31611 26.8951 -3.65378 -0.0 0.0 -0.0 0.229816 14.9061 2.12264 3.52386 -17.7307 59.4918 1.65242 -39.2992 0.590046 -61.6508 -5.48874 5.1496 -0.435952 -0.483149 -3.11995 -0.0 0.0 -0.0 13.0065 21.67 -26.1305 -17.9205 27.223 -63.9286 0.195918 5.54343 -0.00948499 -5.54098 0.227873 -0.670377 -2.45006 -0.304162 16.4514 0.0 0.0 0.0 -15.9045 -2.95097 19.6494 -20.3147 0.291764 3.0875 37.7511 25.652 -4.96705 -21.175 0.0 0.0 -0.0 0.0 -0.0 27.5576 24.4423 -8.43137 -12.225 -0.30725 -1.8474 5.91044 -11.8553 0.853092 -32.2927 0.0 0.0 0.0 0.0 0.0 
2634.29222648 728.192 -1514.25362731 4.90603032172 62.8374613751 -12.2409695315 -1.50419 0.880268 3.38138 -1.49807 0.663448 3.43047 -1.45167 -0.160625 3.49027 -1.46845 0.392274 3.47189 1.72422 12.7551 -4.31109 2.51864 26.0588 -3.8208 -0.0 0.0 -0.0 -0.126786 15.8701 1.66456 1.50252 -16.972 61.3813 1.3826 -34.4054 0.428076 -61.8815 -5.51763 5.15589 -0.0342671 -2.80176 -1.41505 -0.0 0.0 -0.0 12.8848 21.5598 -25.8567 -16.3589 27.3462 -64.4484 0.193684 5.48063 -0.00927055 -5.00573 0.203039 -0.606603 -2.51204 -1.74029 16.1816 0.0 0.0 0.0 -15.2883 -3.51716 19.2251 -24.3674 0.218287 3.70492 38.437 23.6575 -4.97489 -21.308 0.0 0.0 -0.0 0.0 -0.0 24.4337 25.0825 -7.72769 -12.7161 -0.311304 -1.92265 6.01117 -8.01586 0.865541 -32.2684 0.0 0.0 0.0 0.0 0.0 
